<?xml version="1.0" encoding="UTF-8" standalone="no"?>
<svg xmlns="http://www.w3.org/2000/svg" height="69px" width="71px" version="1.1" xmlns:xlink="http://www.w3.org/1999/xlink" viewBox="0 0 71 69"><!-- Generator: Sketch 42 (36781) - http://www.bohemiancoding.com/sketch -->
 <title>kubernetes</title>
 <desc>Created with Sketch.</desc>
 <g id="LXD/Kubernetes" fill-rule="evenodd" fill="none">
  <g id="KUBERNETES" fill-rule="nonzero" transform="translate(-201 -1524)">
   <g id="kubernetes" transform="translate(201 1524)">
    <g id="svg2">
     <g id="layer1" transform="translate(.067532 .025033)">
      <g id="g3052">
       <path id="path3055" fill="#326CE5" d="m35.004 0.081107c-0.622 0.031343-1.232 0.1856-1.794 0.45371l-24.485 11.69c-1.2841 0.613-2.2165 1.771-2.5337 3.148l-6.0406 26.26c-0.28177 1.222-0.052451 2.505 0.63575 3.557 0.08258 0.128 0.17141 0.251 0.26615 0.37l16.947 21.055c0.889 1.104 2.236 1.747 3.661 1.746l27.18-0.006c1.424 0.001 2.772-0.64 3.661-1.743l16.941-21.058c0.889-1.105 1.222-2.55 0.905-3.928l-6.05-26.259c-0.317-1.377-1.25-2.535-2.533-3.148l-24.49-11.684c-0.706-0.33751-1.487-0.49347-2.27-0.45397l-0.001 0.000077z"/>
       <path id="path3059" stroke="#fff" stroke-width=".25" fill="#fff" d="m35.247 9.0178c-0.809 0.0001-1.466 0.7286-1.466 1.6272 0 0.014 0.003 0.027 0.004 0.041-0.002 0.122-0.008 0.269-0.004 0.375 0.02 0.518 0.133 0.915 0.201 1.393 0.123 1.022 0.226 1.869 0.163 2.656-0.062 0.297-0.281 0.569-0.476 0.757l-0.035 0.62c-0.879 0.073-1.765 0.206-2.649 0.407-3.806 0.863-7.082 2.822-9.576 5.466-0.162-0.11-0.445-0.313-0.53-0.375-0.261 0.035-0.526 0.116-0.87-0.085-0.656-0.441-1.253-1.05-1.976-1.783-0.332-0.351-0.571-0.685-0.965-1.023-0.089-0.077-0.226-0.181-0.326-0.26-0.307-0.245-0.67-0.373-1.02-0.385-0.451-0.015-0.885 0.161-1.169 0.516-0.504 0.633-0.343 1.599 0.361 2.159 0.007 0.006 0.014 0.01 0.022 0.016 0.096 0.078 0.214 0.178 0.303 0.244 0.418 0.308 0.799 0.466 1.215 0.71 0.877 0.541 1.604 0.99 2.18 1.53 0.225 0.24 0.264 0.663 0.294 0.845l0.47 0.42c-2.515 3.781-3.678 8.452-2.991 13.211l-0.613 0.178c-0.162 0.209-0.391 0.537-0.63 0.636-0.754 0.237-1.603 0.324-2.627 0.431-0.481 0.04-0.896 0.016-1.406 0.113-0.113 0.021-0.269 0.062-0.392 0.091l-0.012 0.003c-0.007 0.001-0.016 0.005-0.022 0.006-0.8641 0.209-1.419 1.002-1.2403 1.784s1.0223 1.257 1.8913 1.07c0.006-0.002 0.016-0.002 0.022-0.003 0.01-0.003 0.018-0.007 0.028-0.01 0.121-0.026 0.273-0.056 0.379-0.084 0.502-0.134 0.865-0.331 1.315-0.504 0.97-0.347 1.773-0.638 2.556-0.751 0.327-0.025 0.671 0.202 0.842 0.297l0.639-0.109c1.47 4.554 4.551 8.235 8.452 10.545l-0.266 0.638c0.096 0.248 0.202 0.583 0.13 0.828-0.284 0.737-0.771 1.515-1.326 2.382-0.269 0.401-0.544 0.712-0.786 1.171-0.058 0.11-0.132 0.278-0.188 0.394-0.377 0.805-0.101 1.733 0.623 2.081 0.728 0.35 1.632-0.019 2.023-0.826 0.001-0.001 0.003-0.002 0.003-0.003 0.001-0.001 0-0.003 0-0.003 0.056-0.115 0.135-0.265 0.182-0.373 0.207-0.475 0.276-0.882 0.423-1.342 0.387-0.973 0.6-1.995 1.134-2.631 0.146-0.174 0.385-0.241 0.632-0.307l0.332-0.601c3.401 1.304 7.208 1.654 11.011 0.792 0.867-0.197 1.705-0.452 2.514-0.758 0.094 0.166 0.267 0.483 0.314 0.563 0.251 0.082 0.525 0.124 0.748 0.454 0.399 0.682 0.673 1.489 1.005 2.463 0.146 0.46 0.219 0.867 0.426 1.342 0.048 0.109 0.126 0.261 0.182 0.376 0.39 0.809 1.297 1.18 2.026 0.829 0.723-0.348 1-1.276 0.623-2.081-0.056-0.116-0.133-0.284-0.191-0.394-0.242-0.459-0.517-0.767-0.786-1.167-0.555-0.868-1.015-1.588-1.3-2.325-0.118-0.38 0.021-0.617 0.113-0.864-0.055-0.063-0.174-0.422-0.244-0.591 4.054-2.392 7.045-6.211 8.449-10.62 0.19 0.03 0.519 0.088 0.626 0.109 0.221-0.145 0.423-0.335 0.821-0.303 0.782 0.113 1.585 0.403 2.555 0.751 0.451 0.172 0.814 0.373 1.315 0.507 0.106 0.028 0.258 0.054 0.379 0.081 0.01 0.002 0.019 0.007 0.028 0.009 0.007 0.002 0.016 0.002 0.022 0.004 0.869 0.186 1.713-0.289 1.892-1.071 0.178-0.781-0.376-1.575-1.24-1.783-0.126-0.029-0.304-0.077-0.426-0.1-0.51-0.097-0.925-0.073-1.406-0.113-1.025-0.107-1.874-0.195-2.628-0.432-0.307-0.119-0.526-0.485-0.632-0.635l-0.592-0.172c0.307-2.218 0.224-4.527-0.307-6.837-0.536-2.332-1.483-4.464-2.746-6.343 0.151-0.138 0.438-0.392 0.519-0.466 0.024-0.263 0.004-0.538 0.276-0.829 0.576-0.541 1.303-0.99 2.18-1.531 0.416-0.244 0.8-0.402 1.218-0.71 0.094-0.069 0.223-0.18 0.322-0.26 0.703-0.56 0.865-1.526 0.36-2.159-0.504-0.632-1.482-0.691-2.185-0.131-0.1 0.079-0.236 0.182-0.326 0.26-0.393 0.338-0.636 0.672-0.968 1.023-0.722 0.734-1.32 1.346-1.976 1.787-0.284 0.165-0.7 0.108-0.889 0.097l-0.557 0.397c-3.179-3.33-7.507-5.46-12.167-5.873-0.013-0.195-0.03-0.548-0.034-0.654-0.191-0.183-0.422-0.338-0.48-0.732-0.063-0.788 0.043-1.635 0.166-2.657 0.068-0.477 0.181-0.874 0.201-1.392 0.004-0.118-0.003-0.289-0.003-0.417 0-0.8982-0.657-1.6268-1.466-1.6267v-0.0005zm-1.835 11.359l-0.435 7.682-0.032 0.015c-0.029 0.688-0.595 1.236-1.29 1.236-0.285 0-0.547-0.091-0.761-0.247l-0.012 0.006-6.304-4.465c1.937-1.903 4.415-3.31 7.271-3.958 0.522-0.118 1.043-0.206 1.563-0.269zm3.673 0c3.335 0.41 6.418 1.918 8.781 4.23l-6.263 4.437-0.022-0.009c-0.556 0.406-1.339 0.305-1.772-0.238-0.178-0.222-0.271-0.484-0.282-0.748l-0.007-0.003-0.435-7.669zm-14.793 7.097l5.756 5.144-0.006 0.031c0.519 0.451 0.596 1.235 0.163 1.777-0.178 0.223-0.415 0.372-0.671 0.442l-0.006 0.025-7.378 2.127c-0.375-3.431 0.434-6.766 2.142-9.546zm25.87 0.003c0.856 1.385 1.503 2.932 1.889 4.609 0.381 1.657 0.476 3.311 0.319 4.909l-7.415-2.134-0.007-0.031c-0.664-0.181-1.072-0.856-0.917-1.533 0.063-0.277 0.211-0.512 0.41-0.685l-0.003-0.016 5.725-5.119h-0.001zm-14.095 5.538h2.358l1.466 1.831-0.527 2.284-2.117 1.017-2.123-1.02-0.526-2.285 1.469-1.827zm7.56 6.265c0.1-0.005 0.2 0.004 0.297 0.022l0.013-0.016 7.631 1.289c-1.117 3.135-3.254 5.852-6.11 7.67l-2.962-7.15 0.009-0.013c-0.272-0.632 0.001-1.373 0.627-1.674 0.16-0.077 0.328-0.12 0.495-0.128zm-12.818 0.031c0.582 0.008 1.104 0.412 1.24 1.004 0.063 0.278 0.032 0.552-0.072 0.795l0.022 0.028-2.931 7.078c-2.741-1.757-4.924-4.388-6.091-7.616l7.566-1.283 0.012 0.016c0.085-0.016 0.17-0.023 0.254-0.022zm6.391 3.101c0.203-0.008 0.409 0.034 0.605 0.128 0.256 0.124 0.454 0.318 0.579 0.551h0.028l3.73 6.734c-0.484 0.162-0.982 0.3-1.491 0.416-2.852 0.647-5.696 0.451-8.27-0.426l3.72-6.721h0.006c0.224-0.417 0.647-0.666 1.093-0.682z"/>
      </g>
     </g>
    </g>
   </g>
  </g>
 </g>
</svg>