<?xml version="1.0" standalone="no"?>
<!DOCTYPE svg PUBLIC "-//W3C//DTD SVG 20010904//EN"
 "http://www.w3.org/TR/2001/REC-SVG-20010904/DTD/svg10.dtd">
<svg version="1.0" xmlns="http://www.w3.org/2000/svg"
 width="568.000000pt" height="568.000000pt" viewBox="0 0 568.000000 568.000000"
 preserveAspectRatio="xMidYMid meet">
<metadata>
Created by potrace 1.14, written by Peter Selinger 2001-2017
</metadata>
<g transform="translate(0.000000,568.000000) scale(0.100000,-0.100000)"
fill="#000000" stroke="none">
<path d="M2705 5572 c-28 -11 -59 -24 -70 -30 -11 -6 -67 -33 -125 -60 -58
-28 -163 -78 -235 -112 -71 -34 -157 -75 -190 -90 -33 -15 -139 -66 -235 -113
-96 -46 -197 -95 -225 -107 -27 -13 -124 -59 -215 -103 -153 -73 -238 -114
-460 -220 -47 -22 -88 -40 -92 -39 -5 1 -8 -2 -8 -7 0 -5 -14 -12 -30 -16 -17
-4 -30 -11 -30 -16 0 -5 -6 -9 -12 -9 -32 0 -141 -66 -183 -111 -37 -40 -84
-117 -90 -149 -2 -11 -19 -83 -57 -250 -22 -96 -42 -183 -44 -192 -2 -10 -6
-26 -8 -35 -58 -247 -107 -462 -122 -533 -2 -14 -7 -33 -10 -42 -3 -9 -7 -26
-9 -38 -6 -32 -44 -198 -55 -240 -10 -39 -60 -254 -66 -285 -2 -11 -6 -29 -9
-40 -9 -37 -46 -200 -50 -220 -2 -11 -6 -30 -9 -43 -71 -285 -73 -326 -23
-442 8 -19 29 -53 47 -75 17 -22 42 -53 55 -70 13 -16 32 -40 42 -52 10 -12
29 -37 43 -55 14 -18 33 -40 43 -50 9 -10 17 -22 17 -27 0 -5 4 -11 8 -13 4
-1 53 -59 107 -128 55 -69 102 -127 105 -130 3 -3 24 -27 45 -55 22 -27 43
-52 46 -55 3 -3 21 -25 40 -50 77 -102 143 -180 151 -180 5 0 7 -4 4 -9 -4 -5
-3 -11 2 -13 4 -1 35 -37 67 -78 33 -41 62 -77 65 -80 3 -3 21 -25 40 -50 19
-25 37 -47 40 -50 3 -3 50 -61 105 -130 55 -69 102 -127 105 -130 3 -3 21 -25
40 -50 58 -76 64 -83 88 -107 12 -13 22 -26 22 -29 0 -9 24 -36 100 -113 66
-67 84 -79 143 -99 l68 -22 1147 0 c1039 1 1152 2 1197 17 98 32 129 60 265
228 58 72 109 135 115 141 5 6 21 26 35 44 26 35 68 87 85 106 5 6 21 26 35
44 14 17 34 42 45 55 11 12 25 29 30 37 10 16 166 209 175 218 3 3 21 25 40
50 41 53 61 78 75 94 6 6 26 31 45 56 19 25 39 50 45 56 15 16 62 76 156 194
46 58 86 107 89 110 3 3 23 28 45 55 21 28 42 52 45 55 3 3 17 21 31 40 15 19
36 46 48 60 29 35 29 35 100 125 110 138 135 237 96 390 -11 46 -47 202 -50
220 -2 11 -4 20 -5 20 -1 0 -3 8 -5 17 -9 46 -38 175 -43 188 -6 18 -8 25 -16
65 -7 37 -14 66 -65 290 -23 99 -44 189 -46 200 -3 11 -12 49 -21 85 -9 36
-18 74 -20 85 -2 11 -6 31 -9 45 -4 14 -8 36 -11 50 -3 14 -14 59 -24 100 -10
41 -21 89 -24 105 -3 17 -10 45 -15 63 -5 18 -10 35 -10 37 0 3 -3 15 -6 28
-3 12 -7 33 -9 47 -3 14 -5 25 -6 25 -2 0 -5 16 -14 60 -13 66 -16 79 -25 109
-5 17 -19 78 -32 136 -28 136 -68 218 -132 276 -47 42 -85 63 -357 191 -52 25
-151 72 -220 105 -172 83 -335 161 -460 220 -58 28 -152 73 -210 101 -58 28
-107 51 -110 52 -5 1 -44 20 -281 134 -57 28 -110 51 -116 51 -7 0 -13 5 -13
10 0 6 -4 10 -9 10 -5 0 -57 23 -116 50 -59 28 -111 50 -116 50 -5 0 -9 5 -9
10 0 6 -8 10 -18 10 -10 0 -22 3 -26 7 -33 34 -195 42 -271 15z"/>
</g>
</svg>
