<?xml version="1.0" standalone="no"?>
<!DOCTYPE svg PUBLIC "-//W3C//DTD SVG 20010904//EN"
 "http://www.w3.org/TR/2001/REC-SVG-20010904/DTD/svg10.dtd">
<svg version="1.0" xmlns="http://www.w3.org/2000/svg"
 width="700.000000pt" height="700.000000pt" viewBox="0 0 700.000000 700.000000"
 preserveAspectRatio="xMidYMid meet">
<metadata>
Created by potrace 1.14, written by Peter Selinger 2001-2017
</metadata>
<g transform="translate(0.000000,700.000000) scale(0.100000,-0.100000)"
fill="#000000" stroke="none">
<path d="M3278 6995 c-1 -1 -42 -5 -89 -9 -47 -4 -96 -9 -109 -11 -12 -2 -48
-7 -79 -11 -57 -6 -76 -9 -121 -19 -33 -7 -68 -14 -105 -21 -298 -54 -738
-223 -1035 -397 -74 -43 -274 -174 -304 -198 -6 -5 -49 -39 -96 -76 -419 -329
-753 -741 -989 -1224 -39 -80 -71 -149 -71 -153 0 -5 -7 -22 -15 -39 -65 -139
-161 -459 -199 -662 -32 -166 -38 -208 -53 -375 -15 -165 -8 -592 12 -711 2
-13 6 -46 9 -74 20 -170 80 -428 148 -630 263 -781 795 -1446 1503 -1879 192
-117 510 -264 720 -332 195 -63 416 -114 604 -140 25 -3 57 -8 71 -10 162 -25
683 -25 841 1 13 2 47 7 74 10 71 10 87 13 115 18 14 3 43 8 65 12 22 4 67 14
100 22 33 8 71 17 85 20 62 11 278 80 400 128 250 97 451 201 675 350 419 277
759 627 1037 1065 82 130 230 417 253 491 4 13 11 29 15 34 8 10 59 151 101
280 18 53 64 226 75 280 16 79 54 301 59 350 4 33 9 71 11 85 9 47 11 525 4
605 -13 130 -21 202 -25 227 -3 13 -8 43 -11 68 -3 25 -7 53 -10 62 -5 18 -11
46 -20 93 -13 77 -66 272 -104 385 -246 732 -740 1381 -1376 1801 -164 109
-388 232 -534 294 -36 15 -83 35 -105 45 -165 73 -531 174 -740 204 -23 4 -52
8 -65 11 -13 3 -52 7 -86 11 -33 3 -74 8 -90 10 -33 5 -540 14 -546 9z"/>
</g>
</svg>
